<svg xmlns="http://www.w3.org/2000/svg" width="11.764" height="11.244" viewBox="0 0 11.764 11.244"><defs><style>.a{fill:#fff;}</style></defs><g transform="translate(0 0.668)"><path class="a" d="M1.427-.668A1.316,1.316,0,0,0,0,.643,1.305,1.305,0,0,0,1.394,1.954H1.41A1.315,1.315,0,1,0,1.427-.668Zm0,0" transform="translate(0)"/><path class="a" d="M8.109,198.313h2.522V205.9H8.109Zm0,0" transform="translate(-7.96 -195.323)"/><path class="a" d="M226.009,188.625a3.159,3.159,0,0,0-2.273,1.278v-1.1h-2.522v7.587h2.522v-4.237a1.728,1.728,0,0,1,.083-.615,1.38,1.38,0,0,1,1.294-.922c.913,0,1.277.7,1.277,1.716v4.059h2.522v-4.35C228.913,189.709,227.668,188.625,226.009,188.625Zm0,0" transform="translate(-217.149 -185.814)"/></g></svg>