<svg xmlns="http://www.w3.org/2000/svg" xmlns:xlink="http://www.w3.org/1999/xlink" width="79" height="41" viewBox="0 0 79 41">
  <defs>
    <clipPath id="clip-path">
      <rect id="Rect치ngulo_87" data-name="Rect치ngulo 87" width="79" height="41" transform="translate(151 324)" fill="none"/>
    </clipPath>
    <clipPath id="clip-path-2">
      <rect id="Rect치ngulo_86" data-name="Rect치ngulo 86" width="960" height="540" fill="none"/>
    </clipPath>
  </defs>
  <g id="Grupo_241" data-name="Grupo 241" transform="translate(-379 -4325)">
    <g id="Grupo_240" data-name="Grupo 240" transform="translate(228 4001)">
      <g id="Grupo_239" data-name="Grupo 239" clip-path="url(#clip-path)">
        <g id="Grupo_238" data-name="Grupo 238">
          <g id="Grupo_237" data-name="Grupo 237" clip-path="url(#clip-path-2)">
            <path id="Trazado_700" data-name="Trazado 700" d="M221.831,345.7l7.1,6.965v11.257" fill="none" stroke="#25bb42" stroke-linecap="round" stroke-linejoin="round" stroke-width="2.116"/>
            <path id="Trazado_701" data-name="Trazado 701" d="M222.612,334.994a9.875,9.875,0,1,1-19.75,0,9.875,9.875,0,1,1,19.75,0Z" fill="none" stroke="#25bb42" stroke-linecap="round" stroke-linejoin="round" stroke-width="2.116"/>
            <path id="Trazado_702" data-name="Trazado 702" d="M158.887,345.7l-7.1,6.965v11.257" fill="none" stroke="#25bb42" stroke-linecap="round" stroke-linejoin="round" stroke-width="2.116"/>
            <path id="Trazado_703" data-name="Trazado 703" d="M158.1,334.994a9.875,9.875,0,1,0,19.749,0,9.875,9.875,0,1,0-19.749,0Z" fill="none" stroke="#25bb42" stroke-linecap="round" stroke-linejoin="round" stroke-width="2.116"/>
            <path id="Trazado_704" data-name="Trazado 704" d="M181.287,345.7l-7.127,6.965v11.257" fill="none" stroke="#25bb42" stroke-linecap="round" stroke-linejoin="round" stroke-width="2.116"/>
            <path id="Trazado_705" data-name="Trazado 705" d="M199.451,345.7l7.1,6.965v11.257" fill="none" stroke="#25bb42" stroke-linecap="round" stroke-linejoin="round" stroke-width="2.116"/>
            <path id="Trazado_706" data-name="Trazado 706" d="M200.234,334.994a9.875,9.875,0,1,1-19.75,0,9.875,9.875,0,1,1,19.75,0Z" fill="none" stroke="#25bb42" stroke-linecap="round" stroke-linejoin="round" stroke-width="2.116"/>
            <path id="Trazado_707" data-name="Trazado 707" d="M190.5,349.187h2.368l2.63,5.1-5,6.417-5.279-6.417,2.651-5.1Z" fill="none" stroke="#25bb42" stroke-linecap="round" stroke-linejoin="round" stroke-width="2.116"/>
          </g>
        </g>
      </g>
    </g>
  </g>
</svg>
